<?xml version="1.0" encoding="UTF-8" standalone="no"?>
<!DOCTYPE svg PUBLIC "-//W3C//DTD SVG 1.1//EN"
 "http://www.w3.org/Graphics/SVG/1.1/DTD/svg11.dtd">
<!-- Generated by graphviz version 2.42.4 (0)
 -->
<!-- Title: HU01Package Pages: 1 -->
<svg width="1511pt" height="1557pt"
 viewBox="0.00 0.00 1511.20 1557.20" xmlns="http://www.w3.org/2000/svg" xmlns:xlink="http://www.w3.org/1999/xlink">
<g id="graph0" class="graph" transform="scale(1 1) rotate(0) translate(21.6 1535.6)">
<title>HU01Package</title>
<polygon fill="white" stroke="transparent" points="-21.6,21.6 -21.6,-1535.6 1489.6,-1535.6 1489.6,21.6 -21.6,21.6"/>
<g id="clust1" class="cluster">
<title>cluster_controller</title>
<polygon fill="none" stroke="#cbd5e1" points="8,-196 8,-297 323,-297 323,-196 8,-196"/>
<text text-anchor="middle" x="165.5" y="-281.8" font-family="Helvetica,sans-Serif" font-size="14.00">controller</text>
</g>
<g id="clust2" class="cluster">
<title>cluster_dto</title>
<polygon fill="none" stroke="#cbd5e1" points="631,-8 631,-553 914,-553 914,-8 631,-8"/>
<text text-anchor="middle" x="772.5" y="-537.8" font-family="Helvetica,sans-Serif" font-size="14.00">dto</text>
</g>
<g id="clust3" class="cluster">
<title>cluster_service</title>
<polygon fill="none" stroke="#cbd5e1" points="365,-1405 365,-1506 882,-1506 882,-1405 365,-1405"/>
<text text-anchor="middle" x="623.5" y="-1490.8" font-family="Helvetica,sans-Serif" font-size="14.00">service</text>
</g>
<g id="clust4" class="cluster">
<title>cluster_repository</title>
<polygon fill="none" stroke="#cbd5e1" points="669.5,-986 669.5,-1397 875.5,-1397 875.5,-986 669.5,-986"/>
<text text-anchor="middle" x="772.5" y="-1381.8" font-family="Helvetica,sans-Serif" font-size="14.00">repository</text>
</g>
<g id="clust5" class="cluster">
<title>cluster_entity</title>
<polygon fill="none" stroke="#cbd5e1" points="699,-561 699,-978 846,-978 846,-561 699,-561"/>
<text text-anchor="middle" x="772.5" y="-962.8" font-family="Helvetica,sans-Serif" font-size="14.00">entity</text>
</g>
<g id="clust6" class="cluster">
<title>cluster_exception</title>
<polygon fill="none" stroke="#cbd5e1" points="956,-1154 956,-1377 1460,-1377 1460,-1154 956,-1154"/>
<text text-anchor="middle" x="1208" y="-1361.8" font-family="Helvetica,sans-Serif" font-size="14.00">exception</text>
</g>
<!-- registroController -->
<g id="node1" class="node">
<title>registroController</title>
<path fill="#f8fafc" stroke="#475569" d="M28,-204.5C28,-204.5 303,-204.5 303,-204.5 309,-204.5 315,-210.5 315,-216.5 315,-216.5 315,-253.5 315,-253.5 315,-259.5 309,-265.5 303,-265.5 303,-265.5 28,-265.5 28,-265.5 22,-265.5 16,-259.5 16,-253.5 16,-253.5 16,-216.5 16,-216.5 16,-210.5 22,-204.5 28,-204.5"/>
<text text-anchor="middle" x="165.5" y="-250.3" font-family="Helvetica,sans-Serif" font-size="14.00">RegistroUsuarioController</text>
<polyline fill="none" stroke="#475569" points="16,-242.5 315,-242.5 "/>
<text text-anchor="start" x="24" y="-227.3" font-family="Helvetica,sans-Serif" font-size="14.00">+ POST /api/v1/registro</text>
<text text-anchor="start" x="24" y="-212.3" font-family="Helvetica,sans-Serif" font-size="14.00">+ POST /api/v1/registro/validar&#45;identidad</text>
</g>
<!-- validarReq -->
<g id="node2" class="node">
<title>validarReq</title>
<path fill="#f8fafc" stroke="#475569" d="M676.5,-204.5C676.5,-204.5 868.5,-204.5 868.5,-204.5 874.5,-204.5 880.5,-210.5 880.5,-216.5 880.5,-216.5 880.5,-253.5 880.5,-253.5 880.5,-259.5 874.5,-265.5 868.5,-265.5 868.5,-265.5 676.5,-265.5 676.5,-265.5 670.5,-265.5 664.5,-259.5 664.5,-253.5 664.5,-253.5 664.5,-216.5 664.5,-216.5 664.5,-210.5 670.5,-204.5 676.5,-204.5"/>
<text text-anchor="middle" x="772.5" y="-250.3" font-family="Helvetica,sans-Serif" font-size="14.00">ValidarIdentidadRequestDTO</text>
<polyline fill="none" stroke="#475569" points="664.5,-242.5 880.5,-242.5 "/>
<text text-anchor="start" x="672.5" y="-227.3" font-family="Helvetica,sans-Serif" font-size="14.00">documento</text>
<text text-anchor="start" x="672.5" y="-212.3" font-family="Helvetica,sans-Serif" font-size="14.00">fechaExpedicion</text>
</g>
<!-- registroController&#45;&gt;validarReq -->
<g id="edge1" class="edge">
<title>registroController&#45;&gt;validarReq</title>
<path fill="none" stroke="#64748b" d="M315.27,-235C419.69,-235 557.39,-235 654.09,-235"/>
<polygon fill="#64748b" stroke="#64748b" points="654.2,-238.5 664.2,-235 654.2,-231.5 654.2,-238.5"/>
</g>
<!-- registroReq -->
<g id="node4" class="node">
<title>registroReq</title>
<path fill="#f8fafc" stroke="#475569" d="M656,-16.5C656,-16.5 889,-16.5 889,-16.5 895,-16.5 901,-22.5 901,-28.5 901,-28.5 901,-155.5 901,-155.5 901,-161.5 895,-167.5 889,-167.5 889,-167.5 656,-167.5 656,-167.5 650,-167.5 644,-161.5 644,-155.5 644,-155.5 644,-28.5 644,-28.5 644,-22.5 650,-16.5 656,-16.5"/>
<text text-anchor="middle" x="772.5" y="-152.3" font-family="Helvetica,sans-Serif" font-size="14.00">RegistroNuevoUsuarioRequestDTO</text>
<polyline fill="none" stroke="#475569" points="644,-144.5 901,-144.5 "/>
<text text-anchor="start" x="652" y="-129.3" font-family="Helvetica,sans-Serif" font-size="14.00">documento</text>
<text text-anchor="start" x="652" y="-114.3" font-family="Helvetica,sans-Serif" font-size="14.00">fechaExpedicion</text>
<text text-anchor="start" x="652" y="-99.3" font-family="Helvetica,sans-Serif" font-size="14.00">nombre</text>
<text text-anchor="start" x="652" y="-84.3" font-family="Helvetica,sans-Serif" font-size="14.00">email</text>
<text text-anchor="start" x="652" y="-69.3" font-family="Helvetica,sans-Serif" font-size="14.00">direccion</text>
<text text-anchor="start" x="652" y="-54.3" font-family="Helvetica,sans-Serif" font-size="14.00">telefono</text>
<text text-anchor="start" x="652" y="-39.3" font-family="Helvetica,sans-Serif" font-size="14.00">username</text>
<text text-anchor="start" x="652" y="-24.3" font-family="Helvetica,sans-Serif" font-size="14.00">password</text>
</g>
<!-- registroController&#45;&gt;registroReq -->
<g id="edge2" class="edge">
<title>registroController&#45;&gt;registroReq</title>
<path fill="none" stroke="#64748b" d="M295.55,-204.5C395.04,-180.98 532.35,-148.53 633.93,-124.52"/>
<polygon fill="#64748b" stroke="#64748b" points="635.02,-127.85 643.95,-122.15 633.41,-121.04 635.02,-127.85"/>
</g>
<!-- registroService -->
<g id="node6" class="node">
<title>registroService</title>
<path fill="#f8fafc" stroke="#475569" d="M385,-1413.5C385,-1413.5 569,-1413.5 569,-1413.5 575,-1413.5 581,-1419.5 581,-1425.5 581,-1425.5 581,-1462.5 581,-1462.5 581,-1468.5 575,-1474.5 569,-1474.5 569,-1474.5 385,-1474.5 385,-1474.5 379,-1474.5 373,-1468.5 373,-1462.5 373,-1462.5 373,-1425.5 373,-1425.5 373,-1419.5 379,-1413.5 385,-1413.5"/>
<text text-anchor="middle" x="477" y="-1459.3" font-family="Helvetica,sans-Serif" font-size="14.00">RegistroUsuarioServiceImpl</text>
<polyline fill="none" stroke="#475569" points="373,-1451.5 581,-1451.5 "/>
<text text-anchor="start" x="381" y="-1436.3" font-family="Helvetica,sans-Serif" font-size="14.00">validarIdentidad()</text>
<text text-anchor="start" x="381" y="-1421.3" font-family="Helvetica,sans-Serif" font-size="14.00">registrar()</text>
</g>
<!-- registroController&#45;&gt;registroService -->
<g id="edge3" class="edge">
<title>registroController&#45;&gt;registroService</title>
<path fill="none" stroke="#64748b" d="M174.38,-265.79C216.79,-431.44 417.62,-1215.95 465.66,-1403.6"/>
<polygon fill="#64748b" stroke="#64748b" points="462.28,-1404.53 468.15,-1413.35 469.06,-1402.79 462.28,-1404.53"/>
</g>
<!-- validarRes -->
<g id="node3" class="node">
<title>validarRes</title>
<path fill="#f8fafc" stroke="#475569" d="M660,-460.5C660,-460.5 885,-460.5 885,-460.5 891,-460.5 897,-466.5 897,-472.5 897,-472.5 897,-509.5 897,-509.5 897,-515.5 891,-521.5 885,-521.5 885,-521.5 660,-521.5 660,-521.5 654,-521.5 648,-515.5 648,-509.5 648,-509.5 648,-472.5 648,-472.5 648,-466.5 654,-460.5 660,-460.5"/>
<text text-anchor="middle" x="772.5" y="-506.3" font-family="Helvetica,sans-Serif" font-size="14.00">ValidacionIdentidadResponseDTO</text>
<polyline fill="none" stroke="#475569" points="648,-498.5 897,-498.5 "/>
<text text-anchor="start" x="656" y="-483.3" font-family="Helvetica,sans-Serif" font-size="14.00">disponible</text>
<text text-anchor="start" x="656" y="-468.3" font-family="Helvetica,sans-Serif" font-size="14.00">mensaje</text>
</g>
<!-- registroRes -->
<g id="node5" class="node">
<title>registroRes</title>
<path fill="#f8fafc" stroke="#475569" d="M651,-302.5C651,-302.5 894,-302.5 894,-302.5 900,-302.5 906,-308.5 906,-314.5 906,-314.5 906,-411.5 906,-411.5 906,-417.5 900,-423.5 894,-423.5 894,-423.5 651,-423.5 651,-423.5 645,-423.5 639,-417.5 639,-411.5 639,-411.5 639,-314.5 639,-314.5 639,-308.5 645,-302.5 651,-302.5"/>
<text text-anchor="middle" x="772.5" y="-408.3" font-family="Helvetica,sans-Serif" font-size="14.00">RegistroNuevoUsuarioResponseDTO</text>
<polyline fill="none" stroke="#475569" points="639,-400.5 906,-400.5 "/>
<text text-anchor="start" x="647" y="-385.3" font-family="Helvetica,sans-Serif" font-size="14.00">idCliente</text>
<text text-anchor="start" x="647" y="-370.3" font-family="Helvetica,sans-Serif" font-size="14.00">idUsuario</text>
<text text-anchor="start" x="647" y="-355.3" font-family="Helvetica,sans-Serif" font-size="14.00">idCuenta</text>
<text text-anchor="start" x="647" y="-340.3" font-family="Helvetica,sans-Serif" font-size="14.00">numeroCuenta</text>
<text text-anchor="start" x="647" y="-325.3" font-family="Helvetica,sans-Serif" font-size="14.00">saldo</text>
<text text-anchor="start" x="647" y="-310.3" font-family="Helvetica,sans-Serif" font-size="14.00">mensaje</text>
</g>
<!-- registroService&#45;&gt;validarRes -->
<g id="edge12" class="edge">
<title>registroService&#45;&gt;validarRes</title>
<path fill="none" stroke="#64748b" d="M479.43,-1413.11C486.54,-1272.13 522.1,-690.73 631,-552 638.71,-542.18 648.32,-533.91 658.87,-526.95"/>
<polygon fill="#64748b" stroke="#64748b" points="660.82,-529.86 667.51,-521.65 657.16,-523.89 660.82,-529.86"/>
</g>
<!-- registroService&#45;&gt;registroRes -->
<g id="edge13" class="edge">
<title>registroService&#45;&gt;registroRes</title>
<path fill="none" stroke="#64748b" d="M479.13,-1413.18C485.18,-1262.7 517.77,-605.73 631,-442 633.62,-438.21 636.49,-434.58 639.56,-431.1"/>
<polygon fill="#64748b" stroke="#64748b" points="642.21,-433.39 646.58,-423.74 637.15,-428.56 642.21,-433.39"/>
</g>
<!-- numeroCuentaService -->
<g id="node7" class="node">
<title>numeroCuentaService</title>
<path fill="#f8fafc" stroke="#475569" d="M683,-1421C683,-1421 862,-1421 862,-1421 868,-1421 874,-1427 874,-1433 874,-1433 874,-1455 874,-1455 874,-1461 868,-1467 862,-1467 862,-1467 683,-1467 683,-1467 677,-1467 671,-1461 671,-1455 671,-1455 671,-1433 671,-1433 671,-1427 677,-1421 683,-1421"/>
<text text-anchor="middle" x="772.5" y="-1451.8" font-family="Helvetica,sans-Serif" font-size="14.00">NumeroCuentaServiceImpl</text>
<polyline fill="none" stroke="#475569" points="671,-1444 874,-1444 "/>
<text text-anchor="start" x="679" y="-1428.8" font-family="Helvetica,sans-Serif" font-size="14.00">generarNumeroCuenta()</text>
</g>
<!-- registroService&#45;&gt;numeroCuentaService -->
<g id="edge8" class="edge">
<title>registroService&#45;&gt;numeroCuentaService</title>
<path fill="none" stroke="#64748b" d="M581.06,-1444C606.73,-1444 634.35,-1444 660.39,-1444"/>
<polygon fill="#64748b" stroke="#64748b" points="660.66,-1447.5 670.66,-1444 660.66,-1440.5 660.66,-1447.5"/>
</g>
<!-- clienteRepo -->
<g id="node8" class="node">
<title>clienteRepo</title>
<path fill="#f8fafc" stroke="#475569" d="M702,-1289C702,-1289 843,-1289 843,-1289 849,-1289 855,-1295 855,-1301 855,-1301 855,-1353 855,-1353 855,-1359 849,-1365 843,-1365 843,-1365 702,-1365 702,-1365 696,-1365 690,-1359 690,-1353 690,-1353 690,-1301 690,-1301 690,-1295 696,-1289 702,-1289"/>
<text text-anchor="middle" x="772.5" y="-1349.8" font-family="Helvetica,sans-Serif" font-size="14.00">ClienteRepository</text>
<polyline fill="none" stroke="#475569" points="690,-1342 855,-1342 "/>
<text text-anchor="start" x="698" y="-1326.8" font-family="Helvetica,sans-Serif" font-size="14.00">existsByDocumento()</text>
<text text-anchor="start" x="698" y="-1311.8" font-family="Helvetica,sans-Serif" font-size="14.00">existsByEmail()</text>
<text text-anchor="start" x="698" y="-1296.8" font-family="Helvetica,sans-Serif" font-size="14.00">save()</text>
</g>
<!-- registroService&#45;&gt;clienteRepo -->
<g id="edge4" class="edge">
<title>registroService&#45;&gt;clienteRepo</title>
<path fill="none" stroke="#64748b" d="M554.73,-1413.41C593.26,-1398.05 640.19,-1379.34 680.53,-1363.27"/>
<polygon fill="#64748b" stroke="#64748b" points="681.83,-1366.51 689.82,-1359.56 679.24,-1360.01 681.83,-1366.51"/>
</g>
<!-- cuentaRepo -->
<g id="node9" class="node">
<title>cuentaRepo</title>
<path fill="#f8fafc" stroke="#475569" d="M689.5,-1190.5C689.5,-1190.5 855.5,-1190.5 855.5,-1190.5 861.5,-1190.5 867.5,-1196.5 867.5,-1202.5 867.5,-1202.5 867.5,-1239.5 867.5,-1239.5 867.5,-1245.5 861.5,-1251.5 855.5,-1251.5 855.5,-1251.5 689.5,-1251.5 689.5,-1251.5 683.5,-1251.5 677.5,-1245.5 677.5,-1239.5 677.5,-1239.5 677.5,-1202.5 677.5,-1202.5 677.5,-1196.5 683.5,-1190.5 689.5,-1190.5"/>
<text text-anchor="middle" x="772.5" y="-1236.3" font-family="Helvetica,sans-Serif" font-size="14.00">CuentaRepository</text>
<polyline fill="none" stroke="#475569" points="677.5,-1228.5 867.5,-1228.5 "/>
<text text-anchor="start" x="685.5" y="-1213.3" font-family="Helvetica,sans-Serif" font-size="14.00">existsByNumeroCuenta()</text>
<text text-anchor="start" x="685.5" y="-1198.3" font-family="Helvetica,sans-Serif" font-size="14.00">save()</text>
</g>
<!-- registroService&#45;&gt;cuentaRepo -->
<g id="edge5" class="edge">
<title>registroService&#45;&gt;cuentaRepo</title>
<path fill="none" stroke="#64748b" d="M497.7,-1413.48C523.86,-1375.19 573.53,-1309.84 631,-1271 642.31,-1263.36 654.91,-1256.75 667.81,-1251.06"/>
<polygon fill="#64748b" stroke="#64748b" points="669.38,-1254.19 677.23,-1247.08 666.65,-1247.75 669.38,-1254.19"/>
</g>
<!-- usuarioRepo -->
<g id="node10" class="node">
<title>usuarioRepo</title>
<path fill="#f8fafc" stroke="#475569" d="M706.5,-1092.5C706.5,-1092.5 838.5,-1092.5 838.5,-1092.5 844.5,-1092.5 850.5,-1098.5 850.5,-1104.5 850.5,-1104.5 850.5,-1141.5 850.5,-1141.5 850.5,-1147.5 844.5,-1153.5 838.5,-1153.5 838.5,-1153.5 706.5,-1153.5 706.5,-1153.5 700.5,-1153.5 694.5,-1147.5 694.5,-1141.5 694.5,-1141.5 694.5,-1104.5 694.5,-1104.5 694.5,-1098.5 700.5,-1092.5 706.5,-1092.5"/>
<text text-anchor="middle" x="772.5" y="-1138.3" font-family="Helvetica,sans-Serif" font-size="14.00">UsuarioRepository</text>
<polyline fill="none" stroke="#475569" points="694.5,-1130.5 850.5,-1130.5 "/>
<text text-anchor="start" x="702.5" y="-1115.3" font-family="Helvetica,sans-Serif" font-size="14.00">existsByUsername()</text>
<text text-anchor="start" x="702.5" y="-1100.3" font-family="Helvetica,sans-Serif" font-size="14.00">save()</text>
</g>
<!-- registroService&#45;&gt;usuarioRepo -->
<g id="edge6" class="edge">
<title>registroService&#45;&gt;usuarioRepo</title>
<path fill="none" stroke="#64748b" d="M487.24,-1413.15C505.54,-1357.14 551.65,-1238.43 631,-1172 646.51,-1159.02 665.66,-1149.4 684.79,-1142.29"/>
<polygon fill="#64748b" stroke="#64748b" points="686.19,-1145.51 694.47,-1138.9 683.87,-1138.9 686.19,-1145.51"/>
</g>
<!-- rolRepo -->
<g id="node11" class="node">
<title>rolRepo</title>
<path fill="#f8fafc" stroke="#475569" d="M721,-994.5C721,-994.5 824,-994.5 824,-994.5 830,-994.5 836,-1000.5 836,-1006.5 836,-1006.5 836,-1043.5 836,-1043.5 836,-1049.5 830,-1055.5 824,-1055.5 824,-1055.5 721,-1055.5 721,-1055.5 715,-1055.5 709,-1049.5 709,-1043.5 709,-1043.5 709,-1006.5 709,-1006.5 709,-1000.5 715,-994.5 721,-994.5"/>
<text text-anchor="middle" x="772.5" y="-1040.3" font-family="Helvetica,sans-Serif" font-size="14.00">RolRepository</text>
<polyline fill="none" stroke="#475569" points="709,-1032.5 836,-1032.5 "/>
<text text-anchor="start" x="717" y="-1017.3" font-family="Helvetica,sans-Serif" font-size="14.00">findByNombre()</text>
<text text-anchor="start" x="717" y="-1002.3" font-family="Helvetica,sans-Serif" font-size="14.00">save()</text>
</g>
<!-- registroService&#45;&gt;rolRepo -->
<g id="edge7" class="edge">
<title>registroService&#45;&gt;rolRepo</title>
<path fill="none" stroke="#64748b" d="M482.09,-1413.39C493.05,-1343.33 529.45,-1169.96 631,-1074 649.65,-1056.38 674.97,-1045.05 698.99,-1037.79"/>
<polygon fill="#64748b" stroke="#64748b" points="700.15,-1041.1 708.82,-1035.02 698.24,-1034.37 700.15,-1041.1"/>
</g>
<!-- cliente -->
<g id="node12" class="node">
<title>cliente</title>
<path fill="#f8fafc" stroke="#475569" d="M719,-825.5C719,-825.5 826,-825.5 826,-825.5 832,-825.5 838,-831.5 838,-837.5 838,-837.5 838,-934.5 838,-934.5 838,-940.5 832,-946.5 826,-946.5 826,-946.5 719,-946.5 719,-946.5 713,-946.5 707,-940.5 707,-934.5 707,-934.5 707,-837.5 707,-837.5 707,-831.5 713,-825.5 719,-825.5"/>
<text text-anchor="middle" x="772.5" y="-931.3" font-family="Helvetica,sans-Serif" font-size="14.00">Cliente</text>
<polyline fill="none" stroke="#475569" points="707,-923.5 838,-923.5 "/>
<text text-anchor="start" x="715" y="-908.3" font-family="Helvetica,sans-Serif" font-size="14.00">documento</text>
<text text-anchor="start" x="715" y="-893.3" font-family="Helvetica,sans-Serif" font-size="14.00">fechaExpedicion</text>
<text text-anchor="start" x="715" y="-878.3" font-family="Helvetica,sans-Serif" font-size="14.00">nombre</text>
<text text-anchor="start" x="715" y="-863.3" font-family="Helvetica,sans-Serif" font-size="14.00">email</text>
<text text-anchor="start" x="715" y="-848.3" font-family="Helvetica,sans-Serif" font-size="14.00">direccion</text>
<text text-anchor="start" x="715" y="-833.3" font-family="Helvetica,sans-Serif" font-size="14.00">telefono</text>
</g>
<!-- registroService&#45;&gt;cliente -->
<g id="edge9" class="edge">
<title>registroService&#45;&gt;cliente</title>
<path fill="none" stroke="#64748b" d="M480.96,-1413.45C490.04,-1333.78 523.75,-1116.24 631,-977 648.69,-954.03 673.93,-935.15 698.14,-920.65"/>
<polygon fill="#64748b" stroke="#64748b" points="700.11,-923.56 707,-915.51 696.59,-917.5 700.11,-923.56"/>
</g>
<!-- cuenta -->
<g id="node13" class="node">
<title>cuenta</title>
<path fill="#f8fafc" stroke="#475569" d="M721.5,-697.5C721.5,-697.5 823.5,-697.5 823.5,-697.5 829.5,-697.5 835.5,-703.5 835.5,-709.5 835.5,-709.5 835.5,-776.5 835.5,-776.5 835.5,-782.5 829.5,-788.5 823.5,-788.5 823.5,-788.5 721.5,-788.5 721.5,-788.5 715.5,-788.5 709.5,-782.5 709.5,-776.5 709.5,-776.5 709.5,-709.5 709.5,-709.5 709.5,-703.5 715.5,-697.5 721.5,-697.5"/>
<text text-anchor="middle" x="772.5" y="-773.3" font-family="Helvetica,sans-Serif" font-size="14.00">Cuenta</text>
<polyline fill="none" stroke="#475569" points="709.5,-765.5 835.5,-765.5 "/>
<text text-anchor="start" x="717.5" y="-750.3" font-family="Helvetica,sans-Serif" font-size="14.00">numeroCuenta</text>
<text text-anchor="start" x="717.5" y="-735.3" font-family="Helvetica,sans-Serif" font-size="14.00">tipo=AHORROS</text>
<text text-anchor="start" x="717.5" y="-720.3" font-family="Helvetica,sans-Serif" font-size="14.00">estado=ACTIVA</text>
<text text-anchor="start" x="717.5" y="-705.3" font-family="Helvetica,sans-Serif" font-size="14.00">saldo=0</text>
</g>
<!-- registroService&#45;&gt;cuenta -->
<g id="edge10" class="edge">
<title>registroService&#45;&gt;cuenta</title>
<path fill="none" stroke="#64748b" d="M481.8,-1413.17C496.38,-1299.13 551.95,-902.87 631,-807 648.54,-785.73 674.67,-771.22 699.65,-761.47"/>
<polygon fill="#64748b" stroke="#64748b" points="700.98,-764.71 709.15,-757.96 698.55,-758.14 700.98,-764.71"/>
</g>
<!-- usuario -->
<g id="node14" class="node">
<title>usuario</title>
<path fill="#f8fafc" stroke="#475569" d="M721,-569.5C721,-569.5 824,-569.5 824,-569.5 830,-569.5 836,-575.5 836,-581.5 836,-581.5 836,-648.5 836,-648.5 836,-654.5 830,-660.5 824,-660.5 824,-660.5 721,-660.5 721,-660.5 715,-660.5 709,-654.5 709,-648.5 709,-648.5 709,-581.5 709,-581.5 709,-575.5 715,-569.5 721,-569.5"/>
<text text-anchor="middle" x="772.5" y="-645.3" font-family="Helvetica,sans-Serif" font-size="14.00">Usuario</text>
<polyline fill="none" stroke="#475569" points="709,-637.5 836,-637.5 "/>
<text text-anchor="start" x="717" y="-622.3" font-family="Helvetica,sans-Serif" font-size="14.00">username</text>
<text text-anchor="start" x="717" y="-607.3" font-family="Helvetica,sans-Serif" font-size="14.00">passwordHash</text>
<text text-anchor="start" x="717" y="-592.3" font-family="Helvetica,sans-Serif" font-size="14.00">estado=ACTIVO</text>
<text text-anchor="start" x="717" y="-577.3" font-family="Helvetica,sans-Serif" font-size="14.00">rol=CLIENTE</text>
</g>
<!-- registroService&#45;&gt;usuario -->
<g id="edge11" class="edge">
<title>registroService&#45;&gt;usuario</title>
<path fill="none" stroke="#64748b" d="M480.44,-1413.34C491.13,-1285.58 537.6,-796.81 631,-679 648.13,-657.4 674.18,-642.82 699.21,-633.11"/>
<polygon fill="#64748b" stroke="#64748b" points="700.54,-636.35 708.73,-629.63 698.14,-629.78 700.54,-636.35"/>
</g>
<!-- dup -->
<g id="node15" class="node">
<title>dup</title>
<path fill="#f8fafc" stroke="#475569" d="M976,-1309C976,-1309 1199,-1309 1199,-1309 1205,-1309 1211,-1315 1211,-1321 1211,-1321 1211,-1333 1211,-1333 1211,-1339 1205,-1345 1199,-1345 1199,-1345 976,-1345 976,-1345 970,-1345 964,-1339 964,-1333 964,-1333 964,-1321 964,-1321 964,-1315 970,-1309 976,-1309"/>
<text text-anchor="middle" x="1087.5" y="-1323.3" font-family="Helvetica,sans-Serif" font-size="14.00">IdentificacionDuplicadaException</text>
</g>
<!-- clienteRepo&#45;&gt;dup -->
<g id="edge14" class="edge">
<title>clienteRepo&#45;&gt;dup</title>
<path fill="none" stroke="#64748b" d="M855.33,-1327C885.37,-1327 920.2,-1327 953.57,-1327"/>
<polygon fill="#64748b" stroke="#64748b" points="953.87,-1330.5 963.87,-1327 953.87,-1323.5 953.87,-1330.5"/>
</g>
<!-- emailDup -->
<g id="node16" class="node">
<title>emailDup</title>
<path fill="#f8fafc" stroke="#475569" d="M1009.5,-1236C1009.5,-1236 1165.5,-1236 1165.5,-1236 1171.5,-1236 1177.5,-1242 1177.5,-1248 1177.5,-1248 1177.5,-1260 1177.5,-1260 1177.5,-1266 1171.5,-1272 1165.5,-1272 1165.5,-1272 1009.5,-1272 1009.5,-1272 1003.5,-1272 997.5,-1266 997.5,-1260 997.5,-1260 997.5,-1248 997.5,-1248 997.5,-1242 1003.5,-1236 1009.5,-1236"/>
<text text-anchor="middle" x="1087.5" y="-1250.3" font-family="Helvetica,sans-Serif" font-size="14.00">EmailYaExisteException</text>
</g>
<!-- clienteRepo&#45;&gt;emailDup -->
<g id="edge15" class="edge">
<title>clienteRepo&#45;&gt;emailDup</title>
<path fill="none" stroke="#64748b" d="M855.33,-1307.92C899.62,-1297.58 954.35,-1284.82 999.43,-1274.31"/>
<polygon fill="#64748b" stroke="#64748b" points="1000.24,-1277.71 1009.19,-1272.03 998.65,-1270.89 1000.24,-1277.71"/>
</g>
<!-- userDup -->
<g id="node17" class="node">
<title>userDup</title>
<path fill="#f8fafc" stroke="#475569" d="M1002,-1163C1002,-1163 1173,-1163 1173,-1163 1179,-1163 1185,-1169 1185,-1175 1185,-1175 1185,-1187 1185,-1187 1185,-1193 1179,-1199 1173,-1199 1173,-1199 1002,-1199 1002,-1199 996,-1199 990,-1193 990,-1187 990,-1187 990,-1175 990,-1175 990,-1169 996,-1163 1002,-1163"/>
<text text-anchor="middle" x="1087.5" y="-1177.3" font-family="Helvetica,sans-Serif" font-size="14.00">UsuarioYaExisteException</text>
</g>
<!-- usuarioRepo&#45;&gt;userDup -->
<g id="edge16" class="edge">
<title>usuarioRepo&#45;&gt;userDup</title>
<path fill="none" stroke="#64748b" d="M850.87,-1137.34C889.75,-1144.54 937.48,-1153.39 979.79,-1161.23"/>
<polygon fill="#64748b" stroke="#64748b" points="979.38,-1164.71 989.85,-1163.09 980.65,-1157.83 979.38,-1164.71"/>
</g>
<!-- geh -->
<g id="node18" class="node">
<title>geh</title>
<path fill="#f8fafc" stroke="#475569" d="M1281,-1236C1281,-1236 1440,-1236 1440,-1236 1446,-1236 1452,-1242 1452,-1248 1452,-1248 1452,-1260 1452,-1260 1452,-1266 1446,-1272 1440,-1272 1440,-1272 1281,-1272 1281,-1272 1275,-1272 1269,-1266 1269,-1260 1269,-1260 1269,-1248 1269,-1248 1269,-1242 1275,-1236 1281,-1236"/>
<text text-anchor="middle" x="1360.5" y="-1250.3" font-family="Helvetica,sans-Serif" font-size="14.00">GlobalExceptionHandler</text>
</g>
<!-- dup&#45;&gt;geh -->
<g id="edge17" class="edge">
<title>dup&#45;&gt;geh</title>
<path fill="none" stroke="#64748b" d="M1155.49,-1308.96C1194.01,-1298.58 1242.55,-1285.5 1282.61,-1274.71"/>
<polygon fill="#64748b" stroke="#64748b" points="1283.6,-1278.07 1292.34,-1272.09 1281.78,-1271.31 1283.6,-1278.07"/>
</g>
<!-- emailDup&#45;&gt;geh -->
<g id="edge18" class="edge">
<title>emailDup&#45;&gt;geh</title>
<path fill="none" stroke="#64748b" d="M1177.61,-1254C1203.6,-1254 1232.18,-1254 1258.83,-1254"/>
<polygon fill="#64748b" stroke="#64748b" points="1258.94,-1257.5 1268.94,-1254 1258.94,-1250.5 1258.94,-1257.5"/>
</g>
<!-- userDup&#45;&gt;geh -->
<g id="edge19" class="edge">
<title>userDup&#45;&gt;geh</title>
<path fill="none" stroke="#64748b" d="M1155.49,-1199.04C1194.01,-1209.42 1242.55,-1222.5 1282.61,-1233.29"/>
<polygon fill="#64748b" stroke="#64748b" points="1281.78,-1236.69 1292.34,-1235.91 1283.6,-1229.93 1281.78,-1236.69"/>
</g>
</g>
</svg>
