<?xml version="1.0" encoding="UTF-8" standalone="no"?>
<!DOCTYPE svg PUBLIC "-//W3C//DTD SVG 1.1//EN"
 "http://www.w3.org/Graphics/SVG/1.1/DTD/svg11.dtd">
<!-- Generated by graphviz version 2.42.4 (0)
 -->
<!-- Title: HU01Flow Pages: 1 -->
<svg width="1132pt" height="806pt"
 viewBox="0.00 0.00 1132.31 806.20" xmlns="http://www.w3.org/2000/svg" xmlns:xlink="http://www.w3.org/1999/xlink">
<g id="graph0" class="graph" transform="scale(1 1) rotate(0) translate(21.6 784.6)">
<title>HU01Flow</title>
<polygon fill="white" stroke="transparent" points="-21.6,21.6 -21.6,-784.6 1110.71,-784.6 1110.71,21.6 -21.6,21.6"/>
<!-- inicio -->
<g id="node1" class="node">
<title>inicio</title>
<path fill="#f8fafc" stroke="#475569" d="M219.61,-763C219.61,-763 107.61,-763 107.61,-763 101.61,-763 95.61,-757 95.61,-751 95.61,-751 95.61,-739 95.61,-739 95.61,-733 101.61,-727 107.61,-727 107.61,-727 219.61,-727 219.61,-727 225.61,-727 231.61,-733 231.61,-739 231.61,-739 231.61,-751 231.61,-751 231.61,-757 225.61,-763 219.61,-763"/>
<text text-anchor="middle" x="163.61" y="-741.3" font-family="Helvetica,sans-Serif" font-size="14.00">Inicio del registro</text>
</g>
<!-- validar -->
<g id="node2" class="node">
<title>validar</title>
<path fill="#f8fafc" stroke="#475569" d="M303.11,-690C303.11,-690 24.11,-690 24.11,-690 18.11,-690 12.11,-684 12.11,-678 12.11,-678 12.11,-666 12.11,-666 12.11,-660 18.11,-654 24.11,-654 24.11,-654 303.11,-654 303.11,-654 309.11,-654 315.11,-660 315.11,-666 315.11,-666 315.11,-678 315.11,-678 315.11,-684 309.11,-690 303.11,-690"/>
<text text-anchor="middle" x="163.61" y="-668.3" font-family="Helvetica,sans-Serif" font-size="14.00">Validar documento y fecha de expedición</text>
</g>
<!-- inicio&#45;&gt;validar -->
<g id="edge1" class="edge">
<title>inicio&#45;&gt;validar</title>
<path fill="none" stroke="#64748b" d="M163.61,-726.81C163.61,-718.79 163.61,-709.05 163.61,-700.07"/>
<polygon fill="#64748b" stroke="#64748b" points="167.11,-700.03 163.61,-690.03 160.11,-700.03 167.11,-700.03"/>
</g>
<!-- dup -->
<g id="node3" class="node">
<title>dup</title>
<path fill="#f8fafc" stroke="#475569" d="M151.68,-615.69C151.68,-615.69 11.82,-600.31 11.82,-600.31 5.85,-599.66 5.85,-598.34 11.82,-597.69 11.82,-597.69 151.68,-582.31 151.68,-582.31 157.65,-581.66 169.57,-581.66 175.54,-582.31 175.54,-582.31 315.4,-597.69 315.4,-597.69 321.37,-598.34 321.37,-599.66 315.4,-600.31 315.4,-600.31 175.54,-615.69 175.54,-615.69 169.57,-616.34 157.65,-616.34 151.68,-615.69"/>
<text text-anchor="middle" x="163.61" y="-595.3" font-family="Helvetica,sans-Serif" font-size="14.00">¿Documento ya existe?</text>
</g>
<!-- validar&#45;&gt;dup -->
<g id="edge2" class="edge">
<title>validar&#45;&gt;dup</title>
<path fill="none" stroke="#64748b" d="M163.61,-653.81C163.61,-645.79 163.61,-636.05 163.61,-627.07"/>
<polygon fill="#64748b" stroke="#64748b" points="167.11,-627.03 163.61,-617.03 160.11,-627.03 167.11,-627.03"/>
</g>
<!-- errorDup -->
<g id="node4" class="node">
<title>errorDup</title>
<path fill="#fef2f2" stroke="#dc2626" d="M221.61,-530C221.61,-530 63.61,-530 63.61,-530 57.61,-530 51.61,-524 51.61,-518 51.61,-518 51.61,-504 51.61,-504 51.61,-498 57.61,-492 63.61,-492 63.61,-492 221.61,-492 221.61,-492 227.61,-492 233.61,-498 233.61,-504 233.61,-504 233.61,-518 233.61,-518 233.61,-524 227.61,-530 221.61,-530"/>
<text text-anchor="middle" x="142.61" y="-514.8" font-family="Helvetica,sans-Serif" font-size="14.00">409</text>
<text text-anchor="middle" x="142.61" y="-499.8" font-family="Helvetica,sans-Serif" font-size="14.00">Identificación duplicada</text>
</g>
<!-- dup&#45;&gt;errorDup -->
<g id="edge3" class="edge">
<title>dup&#45;&gt;errorDup</title>
<path fill="none" stroke="#64748b" d="M159.56,-581.42C156.69,-569.67 152.78,-553.63 149.43,-539.93"/>
<polygon fill="#64748b" stroke="#64748b" points="152.78,-538.9 147.01,-530.02 145.98,-540.56 152.78,-538.9"/>
<text text-anchor="middle" x="162.11" y="-551.8" font-family="Helvetica,sans-Serif" font-size="14.00">Sí</text>
</g>
<!-- campos -->
<g id="node5" class="node">
<title>campos</title>
<path fill="#f8fafc" stroke="#475569" d="M475.65,-528.06C475.65,-528.06 270.83,-511.94 270.83,-511.94 264.85,-511.47 264.85,-510.53 270.83,-510.06 270.83,-510.06 475.65,-493.94 475.65,-493.94 481.63,-493.47 493.59,-493.47 499.57,-493.94 499.57,-493.94 704.39,-510.06 704.39,-510.06 710.37,-510.53 710.37,-511.47 704.39,-511.94 704.39,-511.94 499.57,-528.06 499.57,-528.06 493.59,-528.53 481.63,-528.53 475.65,-528.06"/>
<text text-anchor="middle" x="487.61" y="-507.3" font-family="Helvetica,sans-Serif" font-size="14.00">¿Campos obligatorios completos?</text>
</g>
<!-- dup&#45;&gt;campos -->
<g id="edge4" class="edge">
<title>dup&#45;&gt;campos</title>
<path fill="none" stroke="#64748b" d="M209,-585.95C266.28,-570.75 364.94,-544.56 428.18,-527.77"/>
<polygon fill="#64748b" stroke="#64748b" points="429.25,-531.11 438.01,-525.16 427.45,-524.35 429.25,-531.11"/>
<text text-anchor="middle" x="355.11" y="-551.8" font-family="Helvetica,sans-Serif" font-size="14.00">No</text>
</g>
<!-- errorCampos -->
<g id="node6" class="node">
<title>errorCampos</title>
<path fill="#fefce8" stroke="#ca8a04" d="M508.61,-441C508.61,-441 308.61,-441 308.61,-441 302.61,-441 296.61,-435 296.61,-429 296.61,-429 296.61,-415 296.61,-415 296.61,-409 302.61,-403 308.61,-403 308.61,-403 508.61,-403 508.61,-403 514.61,-403 520.61,-409 520.61,-415 520.61,-415 520.61,-429 520.61,-429 520.61,-435 514.61,-441 508.61,-441"/>
<text text-anchor="middle" x="408.61" y="-425.8" font-family="Helvetica,sans-Serif" font-size="14.00">400</text>
<text text-anchor="middle" x="408.61" y="-410.8" font-family="Helvetica,sans-Serif" font-size="14.00">Campos obligatorios faltantes</text>
</g>
<!-- campos&#45;&gt;errorCampos -->
<g id="edge5" class="edge">
<title>campos&#45;&gt;errorCampos</title>
<path fill="none" stroke="#64748b" d="M473.12,-494.04C461.69,-481.46 445.53,-463.65 432.23,-449.02"/>
<polygon fill="#64748b" stroke="#64748b" points="434.51,-446.31 425.2,-441.26 429.33,-451.02 434.51,-446.31"/>
<text text-anchor="middle" x="463.11" y="-462.8" font-family="Helvetica,sans-Serif" font-size="14.00">No</text>
</g>
<!-- emailDup -->
<g id="node7" class="node">
<title>emailDup</title>
<path fill="#f8fafc" stroke="#475569" d="M664.72,-438.37C664.72,-438.37 557.12,-423.63 557.12,-423.63 551.18,-422.81 551.18,-421.19 557.12,-420.37 557.12,-420.37 664.72,-405.63 664.72,-405.63 670.67,-404.81 682.55,-404.81 688.5,-405.63 688.5,-405.63 796.1,-420.37 796.1,-420.37 802.04,-421.19 802.04,-422.81 796.1,-423.63 796.1,-423.63 688.5,-438.37 688.5,-438.37 682.55,-439.19 670.67,-439.19 664.72,-438.37"/>
<text text-anchor="middle" x="676.61" y="-418.3" font-family="Helvetica,sans-Serif" font-size="14.00">¿Correo ya existe?</text>
</g>
<!-- campos&#45;&gt;emailDup -->
<g id="edge6" class="edge">
<title>campos&#45;&gt;emailDup</title>
<path fill="none" stroke="#64748b" d="M519.24,-495.44C552.09,-480.32 603.5,-456.66 638.55,-440.52"/>
<polygon fill="#64748b" stroke="#64748b" points="640.35,-443.54 647.97,-436.18 637.42,-437.19 640.35,-443.54"/>
<text text-anchor="middle" x="600.11" y="-462.8" font-family="Helvetica,sans-Serif" font-size="14.00">Sí</text>
</g>
<!-- errorEmail -->
<g id="node8" class="node">
<title>errorEmail</title>
<path fill="#fef2f2" stroke="#dc2626" d="M659.61,-352C659.61,-352 549.61,-352 549.61,-352 543.61,-352 537.61,-346 537.61,-340 537.61,-340 537.61,-326 537.61,-326 537.61,-320 543.61,-314 549.61,-314 549.61,-314 659.61,-314 659.61,-314 665.61,-314 671.61,-320 671.61,-326 671.61,-326 671.61,-340 671.61,-340 671.61,-346 665.61,-352 659.61,-352"/>
<text text-anchor="middle" x="604.61" y="-336.8" font-family="Helvetica,sans-Serif" font-size="14.00">409</text>
<text text-anchor="middle" x="604.61" y="-321.8" font-family="Helvetica,sans-Serif" font-size="14.00">Correo duplicado</text>
</g>
<!-- emailDup&#45;&gt;errorEmail -->
<g id="edge7" class="edge">
<title>emailDup&#45;&gt;errorEmail</title>
<path fill="none" stroke="#64748b" d="M663.74,-405.45C653.29,-392.83 638.35,-374.77 626.1,-359.96"/>
<polygon fill="#64748b" stroke="#64748b" points="628.68,-357.6 619.61,-352.13 623.29,-362.06 628.68,-357.6"/>
<text text-anchor="middle" x="652.11" y="-373.8" font-family="Helvetica,sans-Serif" font-size="14.00">Sí</text>
</g>
<!-- userDup -->
<g id="node9" class="node">
<title>userDup</title>
<path fill="#f8fafc" stroke="#475569" d="M839.69,-349.62C839.69,-349.62 708.35,-334.38 708.35,-334.38 702.39,-333.69 702.39,-332.31 708.35,-331.62 708.35,-331.62 839.69,-316.38 839.69,-316.38 845.65,-315.69 857.57,-315.69 863.53,-316.38 863.53,-316.38 994.87,-331.62 994.87,-331.62 1000.83,-332.31 1000.83,-333.69 994.87,-334.38 994.87,-334.38 863.53,-349.62 863.53,-349.62 857.57,-350.31 845.65,-350.31 839.69,-349.62"/>
<text text-anchor="middle" x="851.61" y="-329.3" font-family="Helvetica,sans-Serif" font-size="14.00">¿Username ya existe?</text>
</g>
<!-- emailDup&#45;&gt;userDup -->
<g id="edge8" class="edge">
<title>emailDup&#45;&gt;userDup</title>
<path fill="none" stroke="#64748b" d="M703.57,-407.6C733.37,-392.78 781.53,-368.84 814.79,-352.3"/>
<polygon fill="#64748b" stroke="#64748b" points="816.35,-355.44 823.75,-347.85 813.24,-349.17 816.35,-355.44"/>
<text text-anchor="middle" x="784.11" y="-373.8" font-family="Helvetica,sans-Serif" font-size="14.00">No</text>
</g>
<!-- errorUser -->
<g id="node10" class="node">
<title>errorUser</title>
<path fill="#fef2f2" stroke="#dc2626" d="M869.11,-263C869.11,-263 734.11,-263 734.11,-263 728.11,-263 722.11,-257 722.11,-251 722.11,-251 722.11,-237 722.11,-237 722.11,-231 728.11,-225 734.11,-225 734.11,-225 869.11,-225 869.11,-225 875.11,-225 881.11,-231 881.11,-237 881.11,-237 881.11,-251 881.11,-251 881.11,-257 875.11,-263 869.11,-263"/>
<text text-anchor="middle" x="801.61" y="-247.8" font-family="Helvetica,sans-Serif" font-size="14.00">409</text>
<text text-anchor="middle" x="801.61" y="-232.8" font-family="Helvetica,sans-Serif" font-size="14.00">Username duplicado</text>
</g>
<!-- userDup&#45;&gt;errorUser -->
<g id="edge9" class="edge">
<title>userDup&#45;&gt;errorUser</title>
<path fill="none" stroke="#64748b" d="M842.44,-316.04C835.41,-303.81 825.54,-286.64 817.27,-272.24"/>
<polygon fill="#64748b" stroke="#64748b" points="820.12,-270.19 812.11,-263.26 814.06,-273.68 820.12,-270.19"/>
<text text-anchor="middle" x="836.11" y="-284.8" font-family="Helvetica,sans-Serif" font-size="14.00">Sí</text>
</g>
<!-- crearCliente -->
<g id="node11" class="node">
<title>crearCliente</title>
<path fill="#f8fafc" stroke="#475569" d="M998.61,-262C998.61,-262 918.61,-262 918.61,-262 912.61,-262 906.61,-256 906.61,-250 906.61,-250 906.61,-238 906.61,-238 906.61,-232 912.61,-226 918.61,-226 918.61,-226 998.61,-226 998.61,-226 1004.61,-226 1010.61,-232 1010.61,-238 1010.61,-238 1010.61,-250 1010.61,-250 1010.61,-256 1004.61,-262 998.61,-262"/>
<text text-anchor="middle" x="958.61" y="-240.3" font-family="Helvetica,sans-Serif" font-size="14.00">Crear cliente</text>
</g>
<!-- userDup&#45;&gt;crearCliente -->
<g id="edge10" class="edge">
<title>userDup&#45;&gt;crearCliente</title>
<path fill="none" stroke="#64748b" d="M870.25,-316.85C886.63,-303.53 910.72,-283.94 929.62,-268.57"/>
<polygon fill="#64748b" stroke="#64748b" points="932.07,-271.09 937.62,-262.07 927.65,-265.66 932.07,-271.09"/>
<text text-anchor="middle" x="920.11" y="-284.8" font-family="Helvetica,sans-Serif" font-size="14.00">No</text>
</g>
<!-- crearCuenta -->
<g id="node12" class="node">
<title>crearCuenta</title>
<path fill="#f8fafc" stroke="#475569" d="M1040.61,-188C1040.61,-188 876.61,-188 876.61,-188 870.61,-188 864.61,-182 864.61,-176 864.61,-176 864.61,-162 864.61,-162 864.61,-156 870.61,-150 876.61,-150 876.61,-150 1040.61,-150 1040.61,-150 1046.61,-150 1052.61,-156 1052.61,-162 1052.61,-162 1052.61,-176 1052.61,-176 1052.61,-182 1046.61,-188 1040.61,-188"/>
<text text-anchor="middle" x="958.61" y="-172.8" font-family="Helvetica,sans-Serif" font-size="14.00">Crear cuenta automática</text>
<text text-anchor="middle" x="958.61" y="-157.8" font-family="Helvetica,sans-Serif" font-size="14.00">(tipo ahorro, saldo 0)</text>
</g>
<!-- crearCliente&#45;&gt;crearCuenta -->
<g id="edge11" class="edge">
<title>crearCliente&#45;&gt;crearCuenta</title>
<path fill="none" stroke="#64748b" d="M958.61,-225.7C958.61,-217.49 958.61,-207.47 958.61,-198.2"/>
<polygon fill="#64748b" stroke="#64748b" points="962.11,-198.19 958.61,-188.19 955.11,-198.19 962.11,-198.19"/>
</g>
<!-- crearUsuario -->
<g id="node13" class="node">
<title>crearUsuario</title>
<path fill="#f8fafc" stroke="#475569" d="M1032.11,-113C1032.11,-113 885.11,-113 885.11,-113 879.11,-113 873.11,-107 873.11,-101 873.11,-101 873.11,-87 873.11,-87 873.11,-81 879.11,-75 885.11,-75 885.11,-75 1032.11,-75 1032.11,-75 1038.11,-75 1044.11,-81 1044.11,-87 1044.11,-87 1044.11,-101 1044.11,-101 1044.11,-107 1038.11,-113 1032.11,-113"/>
<text text-anchor="middle" x="958.61" y="-97.8" font-family="Helvetica,sans-Serif" font-size="14.00">Crear identidad digital</text>
<text text-anchor="middle" x="958.61" y="-82.8" font-family="Helvetica,sans-Serif" font-size="14.00">(rol CLIENTE)</text>
</g>
<!-- crearCuenta&#45;&gt;crearUsuario -->
<g id="edge12" class="edge">
<title>crearCuenta&#45;&gt;crearUsuario</title>
<path fill="none" stroke="#64748b" d="M958.61,-149.96C958.61,-141.88 958.61,-132.18 958.61,-123.18"/>
<polygon fill="#64748b" stroke="#64748b" points="962.11,-123.09 958.61,-113.09 955.11,-123.09 962.11,-123.09"/>
</g>
<!-- respuesta -->
<g id="node14" class="node">
<title>respuesta</title>
<path fill="#ecfdf5" stroke="#16a34a" d="M1077.11,-38C1077.11,-38 840.11,-38 840.11,-38 834.11,-38 828.11,-32 828.11,-26 828.11,-26 828.11,-12 828.11,-12 828.11,-6 834.11,0 840.11,0 840.11,0 1077.11,0 1077.11,0 1083.11,0 1089.11,-6 1089.11,-12 1089.11,-12 1089.11,-26 1089.11,-26 1089.11,-32 1083.11,-38 1077.11,-38"/>
<text text-anchor="middle" x="958.61" y="-22.8" font-family="Helvetica,sans-Serif" font-size="14.00">201</text>
<text text-anchor="middle" x="958.61" y="-7.8" font-family="Helvetica,sans-Serif" font-size="14.00">Retornar número de cuenta y saldo</text>
</g>
<!-- crearUsuario&#45;&gt;respuesta -->
<g id="edge13" class="edge">
<title>crearUsuario&#45;&gt;respuesta</title>
<path fill="none" stroke="#64748b" d="M958.61,-74.96C958.61,-66.88 958.61,-57.18 958.61,-48.18"/>
<polygon fill="#64748b" stroke="#64748b" points="962.11,-48.09 958.61,-38.09 955.11,-48.09 962.11,-48.09"/>
</g>
</g>
</svg>
